<svg xmlns="http://www.w3.org/2000/svg" xmlns:xlink="http://www.w3.org/1999/xlink" width="28" height="20" viewBox="0 0 28 20">
    <defs>
        <rect id="a" width="28" height="20" rx="2"/>
        <linearGradient id="c" x1="50%" x2="50%" y1="0%" y2="100%">
            <stop offset="0%" stop-color="#FFF"/>
            <stop offset="100%" stop-color="#F0F0F0"/>
        </linearGradient>
        <linearGradient id="d" x1="50%" x2="50%" y1="0%" y2="100%">
            <stop offset="0%" stop-color="#FF2E3B"/>
            <stop offset="100%" stop-color="#FC0D1B"/>
        </linearGradient>
    </defs>
    <g fill="none" fill-rule="evenodd">
        <mask id="b" fill="#fff">
            <use xlink:href="#a"/>
        </mask>
        <use fill="#FFF" xlink:href="#a"/>
        <path fill="#0A17A7" d="M0 0h28v20H0z" mask="url(#b)"/>
        <path fill="#FF2E3B" stroke="#FFF" stroke-width=".667" d="M4.333 4.153L-.9-.333H.667l.193.062L5.44 3h1.131l5.762-3.601v.934c0 .296-.17.627-.417.803l-4.25 3.036V5.18l4.3 3.685c.377.323.185.802-.3.802-.257 0-.588-.107-.804-.261L6.56 6.333H5.429L-.333 9.935v-1.44l4.666-3.333V4.153z" mask="url(#b)"/>
        <path fill="url(#c)" d="M0 3.333V6h4.667v3.34c0 .364.306.66.673.66h1.32a.67.67 0 0 0 .673-.66V6h4.658a.677.677 0 0 0 .676-.673v-1.32a.674.674 0 0 0-.676-.674H7.333V0H4.667v3.333H0z" mask="url(#b)"/>
        <path fill="url(#d)" d="M0 4h5.333V0h1.334v4H12v1.333H6.667v4H5.333v-4H0z" mask="url(#b)"/>
        <path fill="#FFF" d="M6 16.333l-1.176.618.225-1.309-.951-.927 1.314-.19L6 13.332l.588 1.191 1.314.191-.95.927.224 1.31zM20 17.333l-.943.276.276-.942-.276-.943L20 16l.943-.276-.276.943.276.942zM20 4.667l-.943.276.276-.943-.276-.943.943.276.943-.276-.276.943.276.943zM24 8.667l-.943.276.276-.943-.276-.943.943.276.943-.276-.276.943.276.943zM16 10l-.943.276.276-.943-.276-.942.943.276.943-.276-.276.942.276.943zM22 11.667l-.471.138.138-.472-.138-.471L22 11l.471-.138-.138.471.138.472z" mask="url(#b)"/>
    </g>
</svg>
