<svg xmlns="http://www.w3.org/2000/svg" xmlns:xlink="http://www.w3.org/1999/xlink" width="20" height="14" viewBox="0 0 20 14">
    <defs>
        <rect id="a" width="19.6" height="14" rx="1.4"/>
    </defs>
    <g fill="none" fill-rule="evenodd">
        <mask id="b" fill="#fff">
            <use xlink:href="#a"/>
        </mask>
        <use fill="#FFF" xlink:href="#a"/>
        <path fill="#0A17A7" d="M0 0h19.6v14H0z" mask="url(#b)"/>
        <path fill="#FFF" d="M4.672 9.333H0V4.667h4.672L-1.942.206l1.044-1.548L7.467 4.3V-.933h4.666V4.3l8.365-5.642L21.542.206l-6.614 4.46H19.6v4.667h-4.672l6.614 4.461-1.044 1.548L12.133 9.7v5.233H7.467V9.7l-8.365 5.642-1.044-1.548 6.614-4.46z" mask="url(#b)"/>
        <path stroke="#DB1F35" stroke-linecap="round" stroke-width=".5" d="M13.068 4.433L21.933-1.4" mask="url(#b)"/>
        <path stroke="#DB1F35" stroke-linecap="round" stroke-width=".5" d="M14.009 14.945l7.948-5.357" mask="url(#b)" transform="matrix(1 0 0 -1 0 24.533)"/>
        <path stroke="#DB1F35" stroke-linecap="round" stroke-width=".5" d="M5.604 4.417l-8.29-5.587" mask="url(#b)"/>
        <path stroke="#DB1F35" stroke-linecap="round" stroke-width=".5" d="M6.503 15.617l-9.19-6.094" mask="url(#b)" transform="matrix(1 0 0 -1 0 25.14)"/>
        <path fill="#E6273E" d="M0 8.4h8.4V14h2.8V8.4h8.4V5.6h-8.4V0H8.4v5.6H0z" mask="url(#b)"/>
    </g>
</svg>
